<?xml version="1.0" encoding="UTF-8" standalone="no"?>
<svg width="288" height="336" xmlns="http://www.w3.org/2000/svg">
<rect width="288" height="336" x="0" y="0" style="fill:rgb(255,255,255);stroke-width:1;stroke:rgb(0,0,0)" />
<rect width="256" height="304" x="16" y="16" style="fill:rgb(255,255,255);stroke-width:1;stroke:red;stroke-dasharray:2" />
<circle cx="144" cy="16" r="1" stroke="black" stroke-width="1" fill="red" />
<circle cx="128" cy="32" r="1" stroke="black" stroke-width="1" fill="red" />
<circle cx="128" cy="64" r="1" stroke="black" stroke-width="1" fill="red" />
<circle cx="128" cy="80" r="1" stroke="black" stroke-width="1" fill="red" />
<circle cx="128" cy="96" r="1" stroke="black" stroke-width="1" fill="red" />
<circle cx="128" cy="112" r="1" stroke="black" stroke-width="1" fiNll="red" />
<circle cx="128" cy="128" r="1" stroke="black" stroke-width="1" fill="red" />
<circle cx="112" cy="144" r="1" stroke="black" stroke-width="1" fill="red" />
<circle cx="128" cy="48" r="1" stroke="black" stroke-width="1" fill="red" />
<circle cx="96" cy="160" r="1" stroke="black" stroke-width="1" fill="red" />
<circle cx="80" cy="176" r="1" stroke="black" stroke-width="1" fill="red" />
<circle cx="16" cy="224" r="1" stroke="black" stroke-width="1" fill="red" />
<circle cx="16" cy="240" r="1" stroke="black" stroke-width="1" fill="red" />
<circle cx="32" cy="256" r="1" stroke="black" stroke-width="1" fill="red" />
<circle cx="64" cy="176" r="1" stroke="black" stroke-width="1" fill="red" />
<circle cx="48" cy="192" r="1" stroke="black" stroke-width="1" fill="red" />
<circle cx="32" cy="208" r="1" stroke="black" stroke-width="1" fill="red" />
<circle cx="48" cy="240" r="1" stroke="black" stroke-width="1" fill="red" />
<circle cx="64" cy="224" r="1" stroke="black" stroke-width="1" fill="red" />
<circle cx="80" cy="208" r="1" stroke="black" stroke-width="1" fill="red" />
<circle cx="96" cy="208" r="1" stroke="black" stroke-width="1" fill="red" />
<circle cx="112" cy="192" r="1" stroke="black" stroke-width="1" fill="red" />
<circle cx="128" cy="208" r="1" stroke="black" stroke-width="1" fill="red" />
<circle cx="128" cy="224" r="1" stroke="black" stroke-width="1" fill="red" />
<circle cx="128" cy="240" r="1" stroke="black" stroke-width="1" fill="red" />
<circle cx="128" cy="256" r="1" stroke="black" stroke-width="1" fill="red" />
<circle cx="128" cy="272" r="1" stroke="black" stroke-width="1" fill="red" />
<circle cx="128" cy="320" r="1" stroke="black" stroke-width="1" fill="red" />
<circle cx="144" cy="304" r="1" stroke="black" stroke-width="1" fill="red" />
<circle cx="160" cy="320" r="1" stroke="black" stroke-width="1" fill="red" />
<circle cx="112" cy="288" r="1" stroke="black" stroke-width="1" fill="red" />
<circle cx="96" cy="304" r="1" stroke="black" stroke-width="1" fill="red" />
<circle cx="112" cy="320" r="1" stroke="black" stroke-width="1" fill="red" />
<circle cx="160" cy="272" r="1" stroke="black" stroke-width="1" fill="red" />
<circle cx="160" cy="256" r="1" stroke="black" stroke-width="1" fill="red" />
<circle cx="160" cy="240" r="1" stroke="black" stroke-width="1" fill="red" />
<circle cx="176" cy="320" r="1" stroke="black" stroke-width="1" fill="red" />
<circle cx="192" cy="304" r="1" stroke="black" stroke-width="1" fill="red" />
<circle cx="176" cy="288" r="1" stroke="black" stroke-width="1" fill="red" />
<circle cx="160" cy="224" r="1" stroke="black" stroke-width="1" fill="red" />
<circle cx="160" cy="208" r="1" stroke="black" stroke-width="1" fill="red" />
<circle cx="176" cy="192" r="1" stroke="black" stroke-width="1" fill="red" />
<circle cx="192" cy="208" r="1" stroke="black" stroke-width="1" fill="red" />
<circle cx="208" cy="208" r="1" stroke="black" stroke-width="1" fill="red" />
<circle cx="224" cy="224" r="1" stroke="black" stroke-width="1" fill="red" />
<circle cx="240" cy="240" r="1" stroke="black" stroke-width="1" fill="red" />
<circle cx="256" cy="256" r="1" stroke="black" stroke-width="1" fill="red" />
<circle cx="256" cy="208" r="1" stroke="black" stroke-width="1" fill="red" />
<circle cx="160" cy="128" r="1" stroke="black" stroke-width="1" fill="red" />
<circle cx="160" cy="112" r="1" stroke="black" stroke-width="1" fill="red" />
<circle cx="160" cy="96" r="1" stroke="black" stroke-width="1" fill="red" />
<circle cx="240" cy="192" r="1" stroke="black" stroke-width="1" fill="red" />
<circle cx="224" cy="176" r="1" stroke="black" stroke-width="1" fill="red" />
<circle cx="208" cy="176" r="1" stroke="black" stroke-width="1" fill="red" />
<circle cx="192" cy="160" r="1" stroke="black" stroke-width="1" fill="red" />
<circle cx="176" cy="144" r="1" stroke="black" stroke-width="1" fill="red" />
<circle cx="272" cy="240" r="1" stroke="black" stroke-width="1" fill="red" />
<circle cx="272" cy="224" r="1" stroke="black" stroke-width="1" fill="red" />
<circle cx="160" cy="80" r="1" stroke="black" stroke-width="1" fill="red" />
<circle cx="160" cy="64" r="1" stroke="black" stroke-width="1" fill="red" />
<circle cx="160" cy="48" r="1" stroke="black" stroke-width="1" fill="red" />
<circle cx="160" cy="32" r="1" stroke="black" stroke-width="1" fill="red" />
</svg>