<?xml version="1.0" encoding="UTF-8" standalone="no"?>
<svg width="288" height="336" xmlns="http://www.w3.org/2000/svg">
<rect width="288" height="336" x="0" y="0" style="fill:rgb(255,255,255);stroke-width:1;stroke:rgb(0,0,0)" />
<polygon points="16,224 16,240 32,256 48,240 64,224 80,208 96,208 112,192 128,208 128,224 128,240 128,256 128,272 112,288 96,304 112,320 128,320 144,304 160,320 176,320 192,304 176,288 160,272 160,256 160,240 160,224 160,208 176,192 192,208 208,208 224,224 240,240 256,256 272,240 272,224 256,208 240,192 224,176 208,176 192,160 176,144 160,128 160,112 160,96 160,80 160,64 160,48 160,32 144,16 128,32 128,48 128,64 128,80 128,96 128,112 128,128 112,144 96,160 80,176 64,176 48,192 32,208 " fill="yellow" stroke="black" fillRule= 'nonzero' />
<circle cx="16" cy="224" r="1" stroke="black" stroke-width="2" fill="red" />
<circle cx="16" cy="240" r="1" stroke="black" stroke-width="2" fill="red" />
<circle cx="32" cy="256" r="1" stroke="black" stroke-width="2" fill="red" />
<circle cx="48" cy="240" r="1" stroke="black" stroke-width="2" fill="red" />
<circle cx="64" cy="224" r="1" stroke="black" stroke-width="2" fill="red" />
<circle cx="80" cy="208" r="1" stroke="black" stroke-width="2" fill="red" />
<circle cx="96" cy="208" r="1" stroke="black" stroke-width="2" fill="red" />
<circle cx="112" cy="192" r="1" stroke="black" stroke-width="2" fill="red" />
<circle cx="128" cy="208" r="1" stroke="black" stroke-width="2" fill="red" />
<circle cx="128" cy="224" r="1" stroke="black" stroke-width="2" fill="red" />
<circle cx="128" cy="240" r="1" stroke="black" stroke-width="2" fill="red" />
<circle cx="128" cy="256" r="1" stroke="black" stroke-width="2" fill="red" />
<circle cx="128" cy="272" r="1" stroke="black" stroke-width="2" fill="red" />
<circle cx="112" cy="288" r="1" stroke="black" stroke-width="2" fill="red" />
<circle cx="96" cy="304" r="1" stroke="black" stroke-width="2" fill="red" />
<circle cx="112" cy="320" r="1" stroke="black" stroke-width="2" fill="red" />
<circle cx="128" cy="320" r="1" stroke="black" stroke-width="2" fill="red" />
<circle cx="144" cy="304" r="1" stroke="black" stroke-width="2" fill="red" />
<circle cx="160" cy="320" r="1" stroke="black" stroke-width="2" fill="red" />
<circle cx="176" cy="320" r="1" stroke="black" stroke-width="2" fill="red" />
<circle cx="192" cy="304" r="1" stroke="black" stroke-width="2" fill="red" />
<circle cx="176" cy="288" r="1" stroke="black" stroke-width="2" fill="red" />
<circle cx="160" cy="272" r="1" stroke="black" stroke-width="2" fill="red" />
<circle cx="160" cy="256" r="1" stroke="black" stroke-width="2" fill="red" />
<circle cx="160" cy="240" r="1" stroke="black" stroke-width="2" fill="red" />
<circle cx="160" cy="224" r="1" stroke="black" stroke-width="2" fill="red" />
<circle cx="160" cy="208" r="1" stroke="black" stroke-width="2" fill="red" />
<circle cx="176" cy="192" r="1" stroke="black" stroke-width="2" fill="red" />
<circle cx="192" cy="208" r="1" stroke="black" stroke-width="2" fill="red" />
<circle cx="208" cy="208" r="1" stroke="black" stroke-width="2" fill="red" />
<circle cx="224" cy="224" r="1" stroke="black" stroke-width="2" fill="red" />
<circle cx="240" cy="240" r="1" stroke="black" stroke-width="2" fill="red" />
<circle cx="256" cy="256" r="1" stroke="black" stroke-width="2" fill="red" />
<circle cx="272" cy="240" r="1" stroke="black" stroke-width="2" fill="red" />
<circle cx="272" cy="224" r="1" stroke="black" stroke-width="2" fill="red" />
<circle cx="256" cy="208" r="1" stroke="black" stroke-width="2" fill="red" />
<circle cx="240" cy="192" r="1" stroke="black" stroke-width="2" fill="red" />
<circle cx="224" cy="176" r="1" stroke="black" stroke-width="2" fill="red" />
<circle cx="208" cy="176" r="1" stroke="black" stroke-width="2" fill="red" />
<circle cx="192" cy="160" r="1" stroke="black" stroke-width="2" fill="red" />
<circle cx="176" cy="144" r="1" stroke="black" stroke-width="2" fill="red" />
<circle cx="160" cy="128" r="1" stroke="black" stroke-width="2" fill="red" />
<circle cx="160" cy="112" r="1" stroke="black" stroke-width="2" fill="red" />
<circle cx="160" cy="96" r="1" stroke="black" stroke-width="2" fill="red" />
<circle cx="160" cy="80" r="1" stroke="black" stroke-width="2" fill="red" />
<circle cx="160" cy="64" r="1" stroke="black" stroke-width="2" fill="red" />
<circle cx="160" cy="48" r="1" stroke="black" stroke-width="2" fill="red" />
<circle cx="160" cy="32" r="1" stroke="black" stroke-width="2" fill="red" />
<circle cx="144" cy="16" r="1" stroke="black" stroke-width="2" fill="red" />
<circle cx="128" cy="32" r="1" stroke="black" stroke-width="2" fill="red" />
<circle cx="128" cy="48" r="1" stroke="black" stroke-width="2" fill="red" />
<circle cx="128" cy="64" r="1" stroke="black" stroke-width="2" fill="red" />
<circle cx="128" cy="80" r="1" stroke="black" stroke-width="2" fill="red" />
<circle cx="128" cy="96" r="1" stroke="black" stroke-width="2" fill="red" />
<circle cx="128" cy="112" r="1" stroke="black" stroke-width="2" fill="red" />
<circle cx="128" cy="128" r="1" stroke="black" stroke-width="2" fill="red" />
<circle cx="112" cy="144" r="1" stroke="black" stroke-width="2" fill="red" />
<circle cx="96" cy="160" r="1" stroke="black" stroke-width="2" fill="red" />
<circle cx="80" cy="176" r="1" stroke="black" stroke-width="2" fill="red" />
<circle cx="64" cy="176" r="1" stroke="black" stroke-width="2" fill="red" />
<circle cx="48" cy="192" r="1" stroke="black" stroke-width="2" fill="red" />
<circle cx="32" cy="208" r="1" stroke="black" stroke-width="2" fill="red" />
</svg>